solid OpenSCAD_Model
  facet normal -1 0 0
    outer loop
      vertex 0 27 5.88164
      vertex 0 32 0
      vertex 0 27 0
    endloop
  endfacet
  facet normal -1 0 0
    outer loop
      vertex 0 32 0
      vertex 0 27 5.88164
      vertex 0 32 10
    endloop
  endfacet
  facet normal -1 -0 0
    outer loop
      vertex 0 32 10
      vertex 0 27 5.88164
      vertex 0 27 10
    endloop
  endfacet
  facet normal -1 0 0
    outer loop
      vertex 0 0 0
      vertex 0 5 5.88164
      vertex 0 5 0
    endloop
  endfacet
  facet normal -1 0 0
    outer loop
      vertex 0 0 10
      vertex 0 5 5.88164
      vertex 0 0 0
    endloop
  endfacet
  facet normal -1 0 0
    outer loop
      vertex 0 5 5.88164
      vertex 0 0 10
      vertex 0 5 10
    endloop
  endfacet
  facet normal 1 -0 0
    outer loop
      vertex 5 27 5
      vertex 5 32 0
      vertex 5 32 5
    endloop
  endfacet
  facet normal 1 -0 0
    outer loop
      vertex 5 5 5
      vertex 5 32 0
      vertex 5 27 5
    endloop
  endfacet
  facet normal 1 0 0
    outer loop
      vertex 5 0 0
      vertex 5 5 5
      vertex 5 0 5
    endloop
  endfacet
  facet normal 1 0 0
    outer loop
      vertex 5 5 5
      vertex 5 0 0
      vertex 5 32 0
    endloop
  endfacet
  facet normal 0 1 0
    outer loop
      vertex 10 32 10
      vertex 5 32 5
      vertex 0 32 10
    endloop
  endfacet
  facet normal 0 1 -0
    outer loop
      vertex 10 32 0
      vertex 5 32 5
      vertex 10 32 10
    endloop
  endfacet
  facet normal 0 1 0
    outer loop
      vertex 5 32 5
      vertex 10 32 0
      vertex 7.88675 32 0
    endloop
  endfacet
  facet normal 0 1 0
    outer loop
      vertex 0 32 0
      vertex 5 32 5
      vertex 5 32 0
    endloop
  endfacet
  facet normal 0 1 0
    outer loop
      vertex 5 32 5
      vertex 0 32 0
      vertex 0 32 10
    endloop
  endfacet
  facet normal 0 0 -1
    outer loop
      vertex 5 0 0
      vertex 3.18015 5 0
      vertex 5 32 0
    endloop
  endfacet
  facet normal 0 0 -1
    outer loop
      vertex 0 0 0
      vertex 3.18015 5 0
      vertex 5 0 0
    endloop
  endfacet
  facet normal -0 0 -1
    outer loop
      vertex 3.18015 5 0
      vertex 0 0 0
      vertex 0 5 0
    endloop
  endfacet
  facet normal 0 0 -1
    outer loop
      vertex 3.18015 27 0
      vertex 5 32 0
      vertex 3.18015 5 0
    endloop
  endfacet
  facet normal 0 0 -1
    outer loop
      vertex 0 32 0
      vertex 3.18015 27 0
      vertex 0 27 0
    endloop
  endfacet
  facet normal 0 0 -1
    outer loop
      vertex 3.18015 27 0
      vertex 0 32 0
      vertex 5 32 0
    endloop
  endfacet
  facet normal 0 0 -1
    outer loop
      vertex 7.88675 27 0
      vertex 10 32 0
      vertex 10 27 0
    endloop
  endfacet
  facet normal -0 0 -1
    outer loop
      vertex 10 32 0
      vertex 7.88675 27 0
      vertex 7.88675 32 0
    endloop
  endfacet
  facet normal 0 0 -1
    outer loop
      vertex 7.88675 0 0
      vertex 10 5 0
      vertex 10 0 0
    endloop
  endfacet
  facet normal -0 0 -1
    outer loop
      vertex 10 5 0
      vertex 7.88675 0 0
      vertex 7.88675 5 0
    endloop
  endfacet
  facet normal 0 -1 0
    outer loop
      vertex 0 0 10
      vertex 5 0 5
      vertex 10 0 10
    endloop
  endfacet
  facet normal 0 -1 0
    outer loop
      vertex 0 0 0
      vertex 5 0 5
      vertex 0 0 10
    endloop
  endfacet
  facet normal 0 -1 -0
    outer loop
      vertex 5 0 5
      vertex 0 0 0
      vertex 5 0 0
    endloop
  endfacet
  facet normal 0 -1 0
    outer loop
      vertex 10 0 0
      vertex 5 0 5
      vertex 7.88675 0 0
    endloop
  endfacet
  facet normal 0 -1 0
    outer loop
      vertex 5 0 5
      vertex 10 0 0
      vertex 10 0 10
    endloop
  endfacet
  facet normal 0 0 1
    outer loop
      vertex 5.73441 2.92 10
      vertex 7.38341 2.92 10
      vertex 7.33591 3.64075 10
    endloop
  endfacet
  facet normal -0 0 1
    outer loop
      vertex 5.78291 3.64774 10
      vertex 7.33591 3.64075 10
      vertex 7.19341 4.131 10
    endloop
  endfacet
  facet normal 0 0 1
    outer loop
      vertex 7.38341 2.92 10
      vertex 5.73441 2.92 10
      vertex 7.33366 2.21825 10
    endloop
  endfacet
  facet normal 0 0 1
    outer loop
      vertex 6.56941 4.50699 10
      vertex 7.19341 4.131 10
      vertex 6.9429 4.41299 10
    endloop
  endfacet
  facet normal 0 -0 1
    outer loop
      vertex 5.78366 2.20824 10
      vertex 7.33366 2.21825 10
      vertex 5.73441 2.92 10
    endloop
  endfacet
  facet normal 0 0 1
    outer loop
      vertex 7.19341 4.131 10
      vertex 6.56941 4.50699 10
      vertex 5.92841 4.13699 10
    endloop
  endfacet
  facet normal 0 0 1
    outer loop
      vertex 7.33366 2.21825 10
      vertex 5.78366 2.20824 10
      vertex 7.1844 1.72499 10
    endloop
  endfacet
  facet normal 0 -0 1
    outer loop
      vertex 5.93141 1.717 10
      vertex 7.1844 1.72499 10
      vertex 5.78366 2.20824 10
    endloop
  endfacet
  facet normal 0 0 1
    outer loop
      vertex 5.92841 4.13699 10
      vertex 6.56941 4.50699 10
      vertex 6.18616 4.41449 10
    endloop
  endfacet
  facet normal 0 -0 1
    outer loop
      vertex 6.5594 1.336 10
      vertex 7.1844 1.72499 10
      vertex 5.93141 1.717 10
    endloop
  endfacet
  facet normal 0 0 1
    outer loop
      vertex 7.19341 4.131 10
      vertex 5.92841 4.13699 10
      vertex 5.78291 3.64774 10
    endloop
  endfacet
  facet normal 0 0 1
    outer loop
      vertex 7.1844 1.72499 10
      vertex 6.5594 1.336 10
      vertex 6.92915 1.43324 10
    endloop
  endfacet
  facet normal 0 0 1
    outer loop
      vertex 7.33591 3.64075 10
      vertex 5.78291 3.64774 10
      vertex 5.73441 2.92 10
    endloop
  endfacet
  facet normal 0 0 1
    outer loop
      vertex 6.5594 1.336 10
      vertex 5.93141 1.717 10
      vertex 6.18741 1.43124 10
    endloop
  endfacet
  facet normal 0 0 1
    outer loop
      vertex 10 5 10
      vertex 7.8804 2.92 10
      vertex 10 0 10
    endloop
  endfacet
  facet normal 0 0 1
    outer loop
      vertex 10 5 10
      vertex 7.8004 3.78174 10
      vertex 7.8804 2.92 10
    endloop
  endfacet
  facet normal 0 0 1
    outer loop
      vertex 10 5 10
      vertex 7.56041 4.403 10
      vertex 7.8004 3.78174 10
    endloop
  endfacet
  facet normal 0 0 1
    outer loop
      vertex 10 5 10
      vertex 7.15315 4.77875 10
      vertex 7.56041 4.403 10
    endloop
  endfacet
  facet normal 0 0 1
    outer loop
      vertex 10 5 10
      vertex 6.56941 4.90399 10
      vertex 7.15315 4.77875 10
    endloop
  endfacet
  facet normal -0 0 1
    outer loop
      vertex 4.63399 3.40399 10
      vertex 5.2404 2.92 10
      vertex 5.32016 3.7885 10
    endloop
  endfacet
  facet normal 0 0 1
    outer loop
      vertex 4.70975 3.6265 10
      vertex 5.32016 3.7885 10
      vertex 4.73499 3.84999 10
    endloop
  endfacet
  facet normal -0 0 1
    outer loop
      vertex 4.65775 4.29724 10
      vertex 5.32016 3.7885 10
      vertex 5.5594 4.40799 10
    endloop
  endfacet
  facet normal -0 0 1
    outer loop
      vertex 4.42599 4.629 10
      vertex 5.5594 4.40799 10
      vertex 5.97191 4.78 10
    endloop
  endfacet
  facet normal 0 0 1
    outer loop
      vertex 5.32016 3.7885 10
      vertex 4.65775 4.29724 10
      vertex 4.73499 3.84999 10
    endloop
  endfacet
  facet normal 0 0 1
    outer loop
      vertex 5.5594 4.40799 10
      vertex 4.42599 4.629 10
      vertex 4.65775 4.29724 10
    endloop
  endfacet
  facet normal -0 0 1
    outer loop
      vertex 4.05074 4.83524 10
      vertex 5.97191 4.78 10
      vertex 6.56941 4.90399 10
    endloop
  endfacet
  facet normal 0 0 1
    outer loop
      vertex 5.97191 4.78 10
      vertex 4.05074 4.83524 10
      vertex 4.42599 4.629 10
    endloop
  endfacet
  facet normal 0 0 1
    outer loop
      vertex 3.543 4.90399 10
      vertex 6.56941 4.90399 10
      vertex 10 5 10
    endloop
  endfacet
  facet normal 0 0 1
    outer loop
      vertex 6.56941 4.90399 10
      vertex 3.543 4.90399 10
      vertex 4.05074 4.83524 10
    endloop
  endfacet
  facet normal 0 0 1
    outer loop
      vertex 0 0 10
      vertex 2.278 1.34499 10
      vertex 0 5 10
    endloop
  endfacet
  facet normal 0 0 1
    outer loop
      vertex 2.43024 1.646 10
      vertex 0 5 10
      vertex 2.278 1.34499 10
    endloop
  endfacet
  facet normal 0 0 1
    outer loop
      vertex 2.42274 4.31299 10
      vertex 0 5 10
      vertex 2.299 3.89999 10
    endloop
  endfacet
  facet normal 0 0 1
    outer loop
      vertex 2.68599 4.63199 10
      vertex 0 5 10
      vertex 2.42274 4.31299 10
    endloop
  endfacet
  facet normal 0 0 1
    outer loop
      vertex 3.06674 4.836 10
      vertex 0 5 10
      vertex 2.68599 4.63199 10
    endloop
  endfacet
  facet normal 0 0 1
    outer loop
      vertex 3.543 4.90399 10
      vertex 0 5 10
      vertex 3.06674 4.836 10
    endloop
  endfacet
  facet normal -0 0 1
    outer loop
      vertex 0 5 10
      vertex 3.543 4.90399 10
      vertex 10 5 10
    endloop
  endfacet
  facet normal -0 0 1
    outer loop
      vertex 7.7964 2.06824 10
      vertex 10 0 10
      vertex 7.8804 2.92 10
    endloop
  endfacet
  facet normal -0 0 1
    outer loop
      vertex 7.5444 1.44499 10
      vertex 10 0 10
      vertex 7.7964 2.06824 10
    endloop
  endfacet
  facet normal -0 0 1
    outer loop
      vertex 7.12915 1.06325 10
      vertex 10 0 10
      vertex 7.5444 1.44499 10
    endloop
  endfacet
  facet normal -0 0 1
    outer loop
      vertex 6.55341 0.936005 10
      vertex 10 0 10
      vertex 7.12915 1.06325 10
    endloop
  endfacet
  facet normal -0 0 1
    outer loop
      vertex 4.79399 1 10
      vertex 6.55341 0.936005 10
      vertex 5.9799 1.0625 10
    endloop
  endfacet
  facet normal 0 0 1
    outer loop
      vertex 4.79399 1.41599 10
      vertex 5.32266 2.06499 10
      vertex 5.2404 2.92 10
    endloop
  endfacet
  facet normal 0 0 1
    outer loop
      vertex 4.79399 1.41599 10
      vertex 5.56941 1.44199 10
      vertex 5.32266 2.06499 10
    endloop
  endfacet
  facet normal 0 0 1
    outer loop
      vertex 4.79399 1 10
      vertex 5.56941 1.44199 10
      vertex 4.79399 1.41599 10
    endloop
  endfacet
  facet normal 0 0 1
    outer loop
      vertex 5.56941 1.44199 10
      vertex 4.79399 1 10
      vertex 5.9799 1.0625 10
    endloop
  endfacet
  facet normal 0 0 1
    outer loop
      vertex 6.55341 0.936005 10
      vertex 4.79399 1 10
      vertex 10 0 10
    endloop
  endfacet
  facet normal 0 0 1
    outer loop
      vertex 0 0 10
      vertex 4.79399 1 10
      vertex 2.278 1 10
    endloop
  endfacet
  facet normal 0 0 1
    outer loop
      vertex 4.79399 1 10
      vertex 0 0 10
      vertex 10 0 10
    endloop
  endfacet
  facet normal 0 0 1
    outer loop
      vertex 2.278 1.34499 10
      vertex 0 0 10
      vertex 2.278 1 10
    endloop
  endfacet
  facet normal 0 0 1
    outer loop
      vertex 4.63399 3.40399 10
      vertex 5.32016 3.7885 10
      vertex 4.70975 3.6265 10
    endloop
  endfacet
  facet normal 0 0 1
    outer loop
      vertex 5.2404 2.92 10
      vertex 4.63399 3.40399 10
      vertex 4.5085 3.183 10
    endloop
  endfacet
  facet normal -0 0 1
    outer loop
      vertex 4.334 2.96199 10
      vertex 5.2404 2.92 10
      vertex 4.5085 3.183 10
    endloop
  endfacet
  facet normal 0 0 1
    outer loop
      vertex 5.2404 2.92 10
      vertex 4.334 2.96199 10
      vertex 4.79399 1.41599 10
    endloop
  endfacet
  facet normal -0 0 1
    outer loop
      vertex 4.04399 2.67999 10
      vertex 4.79399 1.41599 10
      vertex 4.334 2.96199 10
    endloop
  endfacet
  facet normal -0 0 1
    outer loop
      vertex 3.57199 2.27599 10
      vertex 4.79399 1.41599 10
      vertex 4.04399 2.67999 10
    endloop
  endfacet
  facet normal -0 0 1
    outer loop
      vertex 3.29449 2.03224 10
      vertex 4.79399 1.41599 10
      vertex 3.57199 2.27599 10
    endloop
  endfacet
  facet normal -0 0 1
    outer loop
      vertex 3.07999 1.81299 10
      vertex 4.79399 1.41599 10
      vertex 3.29449 2.03224 10
    endloop
  endfacet
  facet normal -0 0 1
    outer loop
      vertex 2.92249 1.61075 10
      vertex 4.79399 1.41599 10
      vertex 3.07999 1.81299 10
    endloop
  endfacet
  facet normal 0 0 1
    outer loop
      vertex 4.79399 1.41599 10
      vertex 2.92249 1.61075 10
      vertex 2.81599 1.41599 10
    endloop
  endfacet
  facet normal 0 0 1
    outer loop
      vertex 3.83124 4.45799 10
      vertex 4.23199 3.83299 10
      vertex 4.18625 4.11525 10
    endloop
  endfacet
  facet normal 0 0 1
    outer loop
      vertex 4.23199 3.83299 10
      vertex 3.54199 4.502 10
      vertex 4.20525 3.61024 10
    endloop
  endfacet
  facet normal 0 0 1
    outer loop
      vertex 3.83124 4.45799 10
      vertex 4.18625 4.11525 10
      vertex 4.049 4.32599 10
    endloop
  endfacet
  facet normal 0 0 1
    outer loop
      vertex 4.23199 3.83299 10
      vertex 3.83124 4.45799 10
      vertex 3.54199 4.502 10
    endloop
  endfacet
  facet normal 0 0 1
    outer loop
      vertex 4.20525 3.61024 10
      vertex 2.799 3.85399 10
      vertex 4.125 3.41199 10
    endloop
  endfacet
  facet normal -0 0 1
    outer loop
      vertex 2.799 3.85399 10
      vertex 4.20525 3.61024 10
      vertex 3.54199 4.502 10
    endloop
  endfacet
  facet normal 0 0 1
    outer loop
      vertex 4.125 3.41199 10
      vertex 2.799 3.85399 10
      vertex 4.00249 3.23074 10
    endloop
  endfacet
  facet normal 0 0 1
    outer loop
      vertex 4.00249 3.23074 10
      vertex 2.799 3.85399 10
      vertex 3.84698 3.05699 10
    endloop
  endfacet
  facet normal 0 0 1
    outer loop
      vertex 3.84698 3.05699 10
      vertex 2.799 3.85399 10
      vertex 3.66449 2.88774 10
    endloop
  endfacet
  facet normal 0 0 1
    outer loop
      vertex 2.799 3.85399 10
      vertex 3.54199 4.502 10
      vertex 3.26099 4.45949 10
    endloop
  endfacet
  facet normal 0 0 1
    outer loop
      vertex 3.66449 2.88774 10
      vertex 2.799 3.85399 10
      vertex 3.461 2.71799 10
    endloop
  endfacet
  facet normal 0 0 1
    outer loop
      vertex 2.87524 4.12749 10
      vertex 3.26099 4.45949 10
      vertex 3.034 4.33199 10
    endloop
  endfacet
  facet normal 0 0 1
    outer loop
      vertex 3.461 2.71799 10
      vertex 2.799 3.85399 10
      vertex 3.24599 2.54175 10
    endloop
  endfacet
  facet normal 0 0 1
    outer loop
      vertex 3.26099 4.45949 10
      vertex 2.87524 4.12749 10
      vertex 2.799 3.85399 10
    endloop
  endfacet
  facet normal 0 0 1
    outer loop
      vertex 3.24599 2.54175 10
      vertex 2.799 3.85399 10
      vertex 3.02899 2.351 10
    endloop
  endfacet
  facet normal 0 0 1
    outer loop
      vertex 2.299 3.89999 10
      vertex 3.02899 2.351 10
      vertex 2.799 3.85399 10
    endloop
  endfacet
  facet normal 0 0 1
    outer loop
      vertex 3.02899 2.351 10
      vertex 2.299 3.89999 10
      vertex 2.81599 2.14149 10
    endloop
  endfacet
  facet normal 0 0 1
    outer loop
      vertex 2.81599 2.14149 10
      vertex 2.299 3.89999 10
      vertex 2.61299 1.909 10
    endloop
  endfacet
  facet normal 0 0 1
    outer loop
      vertex 2.61299 1.909 10
      vertex 2.299 3.89999 10
      vertex 2.43024 1.646 10
    endloop
  endfacet
  facet normal 0 0 1
    outer loop
      vertex 0 5 10
      vertex 2.43024 1.646 10
      vertex 2.299 3.89999 10
    endloop
  endfacet
  facet normal 1 -0 0
    outer loop
      vertex 10 0 10
      vertex 10 5 0
      vertex 10 5 10
    endloop
  endfacet
  facet normal 1 0 0
    outer loop
      vertex 10 5 0
      vertex 10 0 10
      vertex 10 0 0
    endloop
  endfacet
  facet normal 0 1 -0
    outer loop
      vertex 5 5 5
      vertex 0 5 10
      vertex 10 5 10
    endloop
  endfacet
  facet normal 0 1 0
    outer loop
      vertex 0 5 10
      vertex 5 5 5
      vertex 0.301537 5 6.7101
    endloop
  endfacet
  facet normal 0 1 -0
    outer loop
      vertex 10 5 0
      vertex 5 5 5
      vertex 10 5 10
    endloop
  endfacet
  facet normal 0 1 0
    outer loop
      vertex 5 5 5
      vertex 10 5 0
      vertex 7.88675 5 0
    endloop
  endfacet
  facet normal 0 1 0
    outer loop
      vertex 0 5 10
      vertex 0.301537 5 6.7101
      vertex 0 5 5.88164
    endloop
  endfacet
  facet normal 0 1 0
    outer loop
      vertex 5 5 5
      vertex 0 5 5.88164
      vertex 0.301537 5 6.7101
    endloop
  endfacet
  facet normal 0 1 -0
    outer loop
      vertex 3.18015 5 0
      vertex 0 5 5.88164
      vertex 5 5 5
    endloop
  endfacet
  facet normal 0 1 0
    outer loop
      vertex 0 5 5.88164
      vertex 3.18015 5 0
      vertex 0 5 0
    endloop
  endfacet
  facet normal -0 0 1
    outer loop
      vertex 0 32 10
      vertex 10 27 10
      vertex 10 32 10
    endloop
  endfacet
  facet normal 0 0 1
    outer loop
      vertex 10 27 10
      vertex 0 32 10
      vertex 0 27 10
    endloop
  endfacet
  facet normal 1 -0 0
    outer loop
      vertex 10 27 10
      vertex 10 32 0
      vertex 10 32 10
    endloop
  endfacet
  facet normal 1 0 0
    outer loop
      vertex 10 32 0
      vertex 10 27 10
      vertex 10 27 0
    endloop
  endfacet
  facet normal 0 -1 0
    outer loop
      vertex 5 27 5
      vertex 0 27 10
      vertex 0.301537 27 6.7101
    endloop
  endfacet
  facet normal -0 -1 0
    outer loop
      vertex 0.301537 27 6.7101
      vertex 0 27 10
      vertex 0 27 5.88164
    endloop
  endfacet
  facet normal 0 -1 0
    outer loop
      vertex 0 27 10
      vertex 5 27 5
      vertex 10 27 10
    endloop
  endfacet
  facet normal 0 -1 0
    outer loop
      vertex 10 27 0
      vertex 5 27 5
      vertex 7.88675 27 0
    endloop
  endfacet
  facet normal 0 -1 0
    outer loop
      vertex 5 27 5
      vertex 10 27 0
      vertex 10 27 10
    endloop
  endfacet
  facet normal 0 -1 0
    outer loop
      vertex 0 27 5.88164
      vertex 5 27 5
      vertex 0.301537 27 6.7101
    endloop
  endfacet
  facet normal 0 -1 0
    outer loop
      vertex 3.18015 27 0
      vertex 0 27 5.88164
      vertex 0 27 0
    endloop
  endfacet
  facet normal 0 -1 0
    outer loop
      vertex 0 27 5.88164
      vertex 3.18015 27 0
      vertex 5 27 5
    endloop
  endfacet
  facet normal -0.866026 0 -0.5
    outer loop
      vertex 7.88675 0 0
      vertex 5 5 5
      vertex 7.88675 5 0
    endloop
  endfacet
  facet normal -0.866026 -0 -0.5
    outer loop
      vertex 5 5 5
      vertex 7.88675 0 0
      vertex 5 0 5
    endloop
  endfacet
  facet normal -0.866026 0 -0.5
    outer loop
      vertex 7.88675 27 0
      vertex 5 32 5
      vertex 7.88675 32 0
    endloop
  endfacet
  facet normal -0.866026 -0 -0.5
    outer loop
      vertex 5 32 5
      vertex 7.88675 27 0
      vertex 5 27 5
    endloop
  endfacet
  facet normal -0 0 1
    outer loop
      vertex 4.18625 4.11525 11
      vertex 4.73499 3.84999 11
      vertex 4.65775 4.29724 11
    endloop
  endfacet
  facet normal 0 0 1
    outer loop
      vertex 4.73499 3.84999 11
      vertex 4.23199 3.83299 11
      vertex 4.70975 3.6265 11
    endloop
  endfacet
  facet normal 0 0 1
    outer loop
      vertex 4.20525 3.61024 11
      vertex 4.70975 3.6265 11
      vertex 4.23199 3.83299 11
    endloop
  endfacet
  facet normal 0 0 1
    outer loop
      vertex 4.18625 4.11525 11
      vertex 4.65775 4.29724 11
      vertex 4.42599 4.629 11
    endloop
  endfacet
  facet normal 0 0 1
    outer loop
      vertex 4.70975 3.6265 11
      vertex 4.20525 3.61024 11
      vertex 4.63399 3.40399 11
    endloop
  endfacet
  facet normal -0 0 1
    outer loop
      vertex 4.125 3.41199 11
      vertex 4.63399 3.40399 11
      vertex 4.20525 3.61024 11
    endloop
  endfacet
  facet normal 0 0 1
    outer loop
      vertex 4.73499 3.84999 11
      vertex 4.18625 4.11525 11
      vertex 4.23199 3.83299 11
    endloop
  endfacet
  facet normal 0 0 1
    outer loop
      vertex 4.049 4.32599 11
      vertex 4.42599 4.629 11
      vertex 4.05074 4.83524 11
    endloop
  endfacet
  facet normal 0 0 1
    outer loop
      vertex 4.42599 4.629 11
      vertex 4.049 4.32599 11
      vertex 4.18625 4.11525 11
    endloop
  endfacet
  facet normal 0 0 1
    outer loop
      vertex 4.05074 4.83524 11
      vertex 3.83124 4.45799 11
      vertex 4.049 4.32599 11
    endloop
  endfacet
  facet normal 0 0 1
    outer loop
      vertex 3.543 4.90399 11
      vertex 3.83124 4.45799 11
      vertex 4.05074 4.83524 11
    endloop
  endfacet
  facet normal 0 0 1
    outer loop
      vertex 3.543 4.90399 11
      vertex 3.54199 4.502 11
      vertex 3.83124 4.45799 11
    endloop
  endfacet
  facet normal 0 0 1
    outer loop
      vertex 3.543 4.90399 11
      vertex 3.26099 4.45949 11
      vertex 3.54199 4.502 11
    endloop
  endfacet
  facet normal -0 0 1
    outer loop
      vertex 3.06674 4.836 11
      vertex 3.26099 4.45949 11
      vertex 3.543 4.90399 11
    endloop
  endfacet
  facet normal 0 0 1
    outer loop
      vertex 3.06674 4.836 11
      vertex 3.034 4.33199 11
      vertex 3.26099 4.45949 11
    endloop
  endfacet
  facet normal -0 0 1
    outer loop
      vertex 2.68599 4.63199 11
      vertex 3.034 4.33199 11
      vertex 3.06674 4.836 11
    endloop
  endfacet
  facet normal 0 0 1
    outer loop
      vertex 3.034 4.33199 11
      vertex 2.68599 4.63199 11
      vertex 2.87524 4.12749 11
    endloop
  endfacet
  facet normal -0 0 1
    outer loop
      vertex 2.42274 4.31299 11
      vertex 2.87524 4.12749 11
      vertex 2.68599 4.63199 11
    endloop
  endfacet
  facet normal 0 0 1
    outer loop
      vertex 2.87524 4.12749 11
      vertex 2.42274 4.31299 11
      vertex 2.799 3.85399 11
    endloop
  endfacet
  facet normal 0 0 1
    outer loop
      vertex 2.799 3.85399 11
      vertex 2.42274 4.31299 11
      vertex 2.299 3.89999 11
    endloop
  endfacet
  facet normal 0 0 1
    outer loop
      vertex 4.63399 3.40399 11
      vertex 4.125 3.41199 11
      vertex 4.5085 3.183 11
    endloop
  endfacet
  facet normal 0 0 1
    outer loop
      vertex 4.5085 3.183 11
      vertex 4.125 3.41199 11
      vertex 4.334 2.96199 11
    endloop
  endfacet
  facet normal -0 0 1
    outer loop
      vertex 4.00249 3.23074 11
      vertex 4.334 2.96199 11
      vertex 4.125 3.41199 11
    endloop
  endfacet
  facet normal -0 0 1
    outer loop
      vertex 3.84698 3.05699 11
      vertex 4.334 2.96199 11
      vertex 4.00249 3.23074 11
    endloop
  endfacet
  facet normal 0 0 1
    outer loop
      vertex 4.334 2.96199 11
      vertex 3.84698 3.05699 11
      vertex 4.04399 2.67999 11
    endloop
  endfacet
  facet normal -0 0 1
    outer loop
      vertex 3.66449 2.88774 11
      vertex 4.04399 2.67999 11
      vertex 3.84698 3.05699 11
    endloop
  endfacet
  facet normal -0 0 1
    outer loop
      vertex 3.461 2.71799 11
      vertex 4.04399 2.67999 11
      vertex 3.66449 2.88774 11
    endloop
  endfacet
  facet normal 0 0 1
    outer loop
      vertex 4.04399 2.67999 11
      vertex 3.461 2.71799 11
      vertex 3.57199 2.27599 11
    endloop
  endfacet
  facet normal -0 0 1
    outer loop
      vertex 3.24599 2.54175 11
      vertex 3.57199 2.27599 11
      vertex 3.461 2.71799 11
    endloop
  endfacet
  facet normal 0 0 1
    outer loop
      vertex 3.57199 2.27599 11
      vertex 3.24599 2.54175 11
      vertex 3.29449 2.03224 11
    endloop
  endfacet
  facet normal -0 0 1
    outer loop
      vertex 3.02899 2.351 11
      vertex 3.29449 2.03224 11
      vertex 3.24599 2.54175 11
    endloop
  endfacet
  facet normal -0 0 1
    outer loop
      vertex 2.81599 2.14149 11
      vertex 3.29449 2.03224 11
      vertex 3.02899 2.351 11
    endloop
  endfacet
  facet normal 0 0 1
    outer loop
      vertex 3.29449 2.03224 11
      vertex 2.81599 2.14149 11
      vertex 3.07999 1.81299 11
    endloop
  endfacet
  facet normal -0 0 1
    outer loop
      vertex 2.61299 1.909 11
      vertex 3.07999 1.81299 11
      vertex 2.81599 2.14149 11
    endloop
  endfacet
  facet normal 0 0 1
    outer loop
      vertex 3.07999 1.81299 11
      vertex 2.61299 1.909 11
      vertex 2.92249 1.61075 11
    endloop
  endfacet
  facet normal -0 0 1
    outer loop
      vertex 2.43024 1.646 11
      vertex 2.92249 1.61075 11
      vertex 2.61299 1.909 11
    endloop
  endfacet
  facet normal -0 0 1
    outer loop
      vertex 2.81599 1.41599 11
      vertex 4.79399 1 11
      vertex 4.79399 1.41599 11
    endloop
  endfacet
  facet normal 0 0 1
    outer loop
      vertex 2.92249 1.61075 11
      vertex 2.43024 1.646 11
      vertex 2.81599 1.41599 11
    endloop
  endfacet
  facet normal 0 0 1
    outer loop
      vertex 2.278 1.34499 11
      vertex 2.81599 1.41599 11
      vertex 2.43024 1.646 11
    endloop
  endfacet
  facet normal 0 0 1
    outer loop
      vertex 2.278 1 11
      vertex 2.81599 1.41599 11
      vertex 2.278 1.34499 11
    endloop
  endfacet
  facet normal 0 0 1
    outer loop
      vertex 2.81599 1.41599 11
      vertex 2.278 1 11
      vertex 4.79399 1 11
    endloop
  endfacet
  facet normal -0 0 1
    outer loop
      vertex 7.33591 3.64075 11
      vertex 7.8804 2.92 11
      vertex 7.8004 3.78174 11
    endloop
  endfacet
  facet normal -0 0 1
    outer loop
      vertex 7.19341 4.131 11
      vertex 7.8004 3.78174 11
      vertex 7.56041 4.403 11
    endloop
  endfacet
  facet normal 0 0 1
    outer loop
      vertex 7.33366 2.21825 11
      vertex 7.8804 2.92 11
      vertex 7.38341 2.92 11
    endloop
  endfacet
  facet normal 0 0 1
    outer loop
      vertex 7.8804 2.92 11
      vertex 7.33366 2.21825 11
      vertex 7.7964 2.06824 11
    endloop
  endfacet
  facet normal 0 0 1
    outer loop
      vertex 7.8804 2.92 11
      vertex 7.33591 3.64075 11
      vertex 7.38341 2.92 11
    endloop
  endfacet
  facet normal 0 0 1
    outer loop
      vertex 7.8004 3.78174 11
      vertex 7.19341 4.131 11
      vertex 7.33591 3.64075 11
    endloop
  endfacet
  facet normal -0 0 1
    outer loop
      vertex 6.9429 4.41299 11
      vertex 7.56041 4.403 11
      vertex 7.15315 4.77875 11
    endloop
  endfacet
  facet normal 0 0 1
    outer loop
      vertex 7.56041 4.403 11
      vertex 6.9429 4.41299 11
      vertex 7.19341 4.131 11
    endloop
  endfacet
  facet normal 0 0 1
    outer loop
      vertex 6.56941 4.90399 11
      vertex 6.9429 4.41299 11
      vertex 7.15315 4.77875 11
    endloop
  endfacet
  facet normal 0 0 1
    outer loop
      vertex 6.56941 4.90399 11
      vertex 6.56941 4.50699 11
      vertex 6.9429 4.41299 11
    endloop
  endfacet
  facet normal 0 0 1
    outer loop
      vertex 6.56941 4.90399 11
      vertex 6.18616 4.41449 11
      vertex 6.56941 4.50699 11
    endloop
  endfacet
  facet normal -0 0 1
    outer loop
      vertex 5.97191 4.78 11
      vertex 6.18616 4.41449 11
      vertex 6.56941 4.90399 11
    endloop
  endfacet
  facet normal 0 0 1
    outer loop
      vertex 5.5594 4.40799 11
      vertex 6.18616 4.41449 11
      vertex 5.97191 4.78 11
    endloop
  endfacet
  facet normal 0 0 1
    outer loop
      vertex 6.18616 4.41449 11
      vertex 5.5594 4.40799 11
      vertex 5.92841 4.13699 11
    endloop
  endfacet
  facet normal 0 0 1
    outer loop
      vertex 5.2404 2.92 11
      vertex 5.73441 2.92 11
      vertex 5.78291 3.64774 11
    endloop
  endfacet
  facet normal 0 0 1
    outer loop
      vertex 5.32016 3.7885 11
      vertex 5.92841 4.13699 11
      vertex 5.5594 4.40799 11
    endloop
  endfacet
  facet normal 0 0 1
    outer loop
      vertex 5.92841 4.13699 11
      vertex 5.32016 3.7885 11
      vertex 5.78291 3.64774 11
    endloop
  endfacet
  facet normal 0 0 1
    outer loop
      vertex 5.73441 2.92 11
      vertex 5.2404 2.92 11
      vertex 5.32266 2.06499 11
    endloop
  endfacet
  facet normal 0 0 1
    outer loop
      vertex 5.78291 3.64774 11
      vertex 5.32016 3.7885 11
      vertex 5.2404 2.92 11
    endloop
  endfacet
  facet normal 0 0 1
    outer loop
      vertex 5.73441 2.92 11
      vertex 5.32266 2.06499 11
      vertex 5.56941 1.44199 11
    endloop
  endfacet
  facet normal 0 0 1
    outer loop
      vertex 7.1844 1.72499 11
      vertex 7.7964 2.06824 11
      vertex 7.33366 2.21825 11
    endloop
  endfacet
  facet normal 0 0 1
    outer loop
      vertex 7.7964 2.06824 11
      vertex 7.1844 1.72499 11
      vertex 7.5444 1.44499 11
    endloop
  endfacet
  facet normal 0 0 1
    outer loop
      vertex 6.92915 1.43324 11
      vertex 7.5444 1.44499 11
      vertex 7.1844 1.72499 11
    endloop
  endfacet
  facet normal 0 0 1
    outer loop
      vertex 7.5444 1.44499 11
      vertex 6.92915 1.43324 11
      vertex 7.12915 1.06325 11
    endloop
  endfacet
  facet normal -0 0 1
    outer loop
      vertex 6.5594 1.336 11
      vertex 7.12915 1.06325 11
      vertex 6.92915 1.43324 11
    endloop
  endfacet
  facet normal 0 0 1
    outer loop
      vertex 6.5594 1.336 11
      vertex 6.55341 0.936005 11
      vertex 7.12915 1.06325 11
    endloop
  endfacet
  facet normal 0 0 1
    outer loop
      vertex 6.18741 1.43124 11
      vertex 6.55341 0.936005 11
      vertex 6.5594 1.336 11
    endloop
  endfacet
  facet normal 0 0 1
    outer loop
      vertex 6.18741 1.43124 11
      vertex 5.9799 1.0625 11
      vertex 6.55341 0.936005 11
    endloop
  endfacet
  facet normal -0 0 1
    outer loop
      vertex 5.56941 1.44199 11
      vertex 6.18741 1.43124 11
      vertex 5.93141 1.717 11
    endloop
  endfacet
  facet normal 0 0 1
    outer loop
      vertex 5.56941 1.44199 11
      vertex 5.93141 1.717 11
      vertex 5.78366 2.20824 11
    endloop
  endfacet
  facet normal 0 0 1
    outer loop
      vertex 6.18741 1.43124 11
      vertex 5.56941 1.44199 11
      vertex 5.9799 1.0625 11
    endloop
  endfacet
  facet normal 0 0 1
    outer loop
      vertex 5.56941 1.44199 11
      vertex 5.78366 2.20824 11
      vertex 5.73441 2.92 11
    endloop
  endfacet
  facet normal 0 1 -0
    outer loop
      vertex 4.79399 1.41599 10
      vertex 2.81599 1.41599 11
      vertex 4.79399 1.41599 11
    endloop
  endfacet
  facet normal 0 1 0
    outer loop
      vertex 2.81599 1.41599 11
      vertex 4.79399 1.41599 10
      vertex 2.81599 1.41599 10
    endloop
  endfacet
  facet normal 0.877389 -0.47978 0
    outer loop
      vertex 2.81599 1.41599 11
      vertex 2.92249 1.61075 10
      vertex 2.92249 1.61075 11
    endloop
  endfacet
  facet normal 0.877389 -0.47978 0
    outer loop
      vertex 2.92249 1.61075 10
      vertex 2.81599 1.41599 11
      vertex 2.81599 1.41599 10
    endloop
  endfacet
  facet normal 0.78897 -0.614432 0
    outer loop
      vertex 2.92249 1.61075 11
      vertex 3.07999 1.81299 10
      vertex 3.07999 1.81299 11
    endloop
  endfacet
  facet normal 0.78897 -0.614432 0
    outer loop
      vertex 3.07999 1.81299 10
      vertex 2.92249 1.61075 11
      vertex 2.92249 1.61075 10
    endloop
  endfacet
  facet normal 0.714807 -0.699321 0
    outer loop
      vertex 3.07999 1.81299 11
      vertex 3.29449 2.03224 10
      vertex 3.29449 2.03224 11
    endloop
  endfacet
  facet normal 0.714807 -0.699321 0
    outer loop
      vertex 3.29449 2.03224 10
      vertex 3.07999 1.81299 11
      vertex 3.07999 1.81299 10
    endloop
  endfacet
  facet normal 0.659941 -0.751317 0
    outer loop
      vertex 3.29449 2.03224 10
      vertex 3.57199 2.27599 11
      vertex 3.29449 2.03224 11
    endloop
  endfacet
  facet normal 0.659941 -0.751317 0
    outer loop
      vertex 3.57199 2.27599 11
      vertex 3.29449 2.03224 10
      vertex 3.57199 2.27599 10
    endloop
  endfacet
  facet normal 0.650261 -0.759711 0
    outer loop
      vertex 3.57199 2.27599 10
      vertex 4.04399 2.67999 11
      vertex 3.57199 2.27599 11
    endloop
  endfacet
  facet normal 0.650261 -0.759711 0
    outer loop
      vertex 4.04399 2.67999 11
      vertex 3.57199 2.27599 10
      vertex 4.04399 2.67999 10
    endloop
  endfacet
  facet normal 0.697137 -0.716938 0
    outer loop
      vertex 4.04399 2.67999 10
      vertex 4.334 2.96199 11
      vertex 4.04399 2.67999 11
    endloop
  endfacet
  facet normal 0.697137 -0.716938 0
    outer loop
      vertex 4.334 2.96199 11
      vertex 4.04399 2.67999 10
      vertex 4.334 2.96199 10
    endloop
  endfacet
  facet normal 0.784851 -0.619685 0
    outer loop
      vertex 4.334 2.96199 11
      vertex 4.5085 3.183 10
      vertex 4.5085 3.183 11
    endloop
  endfacet
  facet normal 0.784851 -0.619685 0
    outer loop
      vertex 4.5085 3.183 10
      vertex 4.334 2.96199 11
      vertex 4.334 2.96199 10
    endloop
  endfacet
  facet normal 0.869579 -0.493794 0
    outer loop
      vertex 4.5085 3.183 11
      vertex 4.63399 3.40399 10
      vertex 4.63399 3.40399 11
    endloop
  endfacet
  facet normal 0.869579 -0.493794 0
    outer loop
      vertex 4.63399 3.40399 10
      vertex 4.5085 3.183 11
      vertex 4.5085 3.183 10
    endloop
  endfacet
  facet normal 0.946634 -0.322309 0
    outer loop
      vertex 4.63399 3.40399 11
      vertex 4.70975 3.6265 10
      vertex 4.70975 3.6265 11
    endloop
  endfacet
  facet normal 0.946634 -0.322309 0
    outer loop
      vertex 4.70975 3.6265 10
      vertex 4.63399 3.40399 11
      vertex 4.63399 3.40399 10
    endloop
  endfacet
  facet normal 0.993683 -0.112222 0
    outer loop
      vertex 4.70975 3.6265 11
      vertex 4.73499 3.84999 10
      vertex 4.73499 3.84999 11
    endloop
  endfacet
  facet normal 0.993683 -0.112222 0
    outer loop
      vertex 4.73499 3.84999 10
      vertex 4.70975 3.6265 11
      vertex 4.70975 3.6265 10
    endloop
  endfacet
  facet normal 0.985413 0.170181 0
    outer loop
      vertex 4.73499 3.84999 11
      vertex 4.65775 4.29724 10
      vertex 4.65775 4.29724 11
    endloop
  endfacet
  facet normal 0.985413 0.170181 0
    outer loop
      vertex 4.65775 4.29724 10
      vertex 4.73499 3.84999 11
      vertex 4.73499 3.84999 10
    endloop
  endfacet
  facet normal 0.819779 0.572679 0
    outer loop
      vertex 4.65775 4.29724 11
      vertex 4.42599 4.629 10
      vertex 4.42599 4.629 11
    endloop
  endfacet
  facet normal 0.819779 0.572679 0
    outer loop
      vertex 4.42599 4.629 10
      vertex 4.65775 4.29724 11
      vertex 4.65775 4.29724 10
    endloop
  endfacet
  facet normal 0.481654 0.876361 -0
    outer loop
      vertex 4.42599 4.629 10
      vertex 4.05074 4.83524 11
      vertex 4.42599 4.629 11
    endloop
  endfacet
  facet normal 0.481654 0.876361 0
    outer loop
      vertex 4.05074 4.83524 11
      vertex 4.42599 4.629 10
      vertex 4.05074 4.83524 10
    endloop
  endfacet
  facet normal 0.134179 0.990957 -0
    outer loop
      vertex 4.05074 4.83524 10
      vertex 3.543 4.90399 11
      vertex 4.05074 4.83524 11
    endloop
  endfacet
  facet normal 0.134179 0.990957 0
    outer loop
      vertex 3.543 4.90399 11
      vertex 4.05074 4.83524 10
      vertex 3.543 4.90399 10
    endloop
  endfacet
  facet normal -0.141325 0.989963 0
    outer loop
      vertex 3.543 4.90399 10
      vertex 3.06674 4.836 11
      vertex 3.543 4.90399 11
    endloop
  endfacet
  facet normal -0.141325 0.989963 0
    outer loop
      vertex 3.06674 4.836 11
      vertex 3.543 4.90399 10
      vertex 3.06674 4.836 10
    endloop
  endfacet
  facet normal -0.472288 0.881445 0
    outer loop
      vertex 3.06674 4.836 10
      vertex 2.68599 4.63199 11
      vertex 3.06674 4.836 11
    endloop
  endfacet
  facet normal -0.472288 0.881445 0
    outer loop
      vertex 2.68599 4.63199 11
      vertex 3.06674 4.836 10
      vertex 2.68599 4.63199 10
    endloop
  endfacet
  facet normal -0.771284 0.636491 0
    outer loop
      vertex 2.42274 4.31299 10
      vertex 2.68599 4.63199 11
      vertex 2.68599 4.63199 10
    endloop
  endfacet
  facet normal -0.771284 0.636491 0
    outer loop
      vertex 2.68599 4.63199 11
      vertex 2.42274 4.31299 10
      vertex 2.42274 4.31299 11
    endloop
  endfacet
  facet normal -0.957928 0.287007 0
    outer loop
      vertex 2.299 3.89999 10
      vertex 2.42274 4.31299 11
      vertex 2.42274 4.31299 10
    endloop
  endfacet
  facet normal -0.957928 0.287007 0
    outer loop
      vertex 2.42274 4.31299 11
      vertex 2.299 3.89999 10
      vertex 2.299 3.89999 11
    endloop
  endfacet
  facet normal -0.0916131 -0.995795 0
    outer loop
      vertex 2.299 3.89999 10
      vertex 2.799 3.85399 11
      vertex 2.299 3.89999 11
    endloop
  endfacet
  facet normal -0.0916131 -0.995795 -0
    outer loop
      vertex 2.799 3.85399 11
      vertex 2.299 3.89999 10
      vertex 2.799 3.85399 10
    endloop
  endfacet
  facet normal 0.963274 -0.268519 0
    outer loop
      vertex 2.799 3.85399 11
      vertex 2.87524 4.12749 10
      vertex 2.87524 4.12749 11
    endloop
  endfacet
  facet normal 0.963274 -0.268519 0
    outer loop
      vertex 2.87524 4.12749 10
      vertex 2.799 3.85399 11
      vertex 2.799 3.85399 10
    endloop
  endfacet
  facet normal 0.789905 -0.613229 0
    outer loop
      vertex 2.87524 4.12749 11
      vertex 3.034 4.33199 10
      vertex 3.034 4.33199 11
    endloop
  endfacet
  facet normal 0.789905 -0.613229 0
    outer loop
      vertex 3.034 4.33199 10
      vertex 2.87524 4.12749 11
      vertex 2.87524 4.12749 10
    endloop
  endfacet
  facet normal 0.48973 -0.871874 0
    outer loop
      vertex 3.034 4.33199 10
      vertex 3.26099 4.45949 11
      vertex 3.034 4.33199 11
    endloop
  endfacet
  facet normal 0.48973 -0.871874 0
    outer loop
      vertex 3.26099 4.45949 11
      vertex 3.034 4.33199 10
      vertex 3.26099 4.45949 10
    endloop
  endfacet
  facet normal 0.149579 -0.98875 0
    outer loop
      vertex 3.26099 4.45949 10
      vertex 3.54199 4.502 11
      vertex 3.26099 4.45949 11
    endloop
  endfacet
  facet normal 0.149579 -0.98875 0
    outer loop
      vertex 3.54199 4.502 11
      vertex 3.26099 4.45949 10
      vertex 3.54199 4.502 10
    endloop
  endfacet
  facet normal -0.150421 -0.988622 0
    outer loop
      vertex 3.54199 4.502 10
      vertex 3.83124 4.45799 11
      vertex 3.54199 4.502 11
    endloop
  endfacet
  facet normal -0.150421 -0.988622 -0
    outer loop
      vertex 3.83124 4.45799 11
      vertex 3.54199 4.502 10
      vertex 3.83124 4.45799 10
    endloop
  endfacet
  facet normal -0.518371 -0.855156 0
    outer loop
      vertex 3.83124 4.45799 10
      vertex 4.049 4.32599 11
      vertex 3.83124 4.45799 11
    endloop
  endfacet
  facet normal -0.518371 -0.855156 -0
    outer loop
      vertex 4.049 4.32599 11
      vertex 3.83124 4.45799 10
      vertex 4.049 4.32599 10
    endloop
  endfacet
  facet normal -0.837955 -0.54574 0
    outer loop
      vertex 4.18625 4.11525 10
      vertex 4.049 4.32599 11
      vertex 4.049 4.32599 10
    endloop
  endfacet
  facet normal -0.837955 -0.54574 0
    outer loop
      vertex 4.049 4.32599 11
      vertex 4.18625 4.11525 10
      vertex 4.18625 4.11525 11
    endloop
  endfacet
  facet normal -0.987123 -0.159962 0
    outer loop
      vertex 4.23199 3.83299 10
      vertex 4.18625 4.11525 11
      vertex 4.18625 4.11525 10
    endloop
  endfacet
  facet normal -0.987123 -0.159962 0
    outer loop
      vertex 4.18625 4.11525 11
      vertex 4.23199 3.83299 10
      vertex 4.23199 3.83299 11
    endloop
  endfacet
  facet normal -0.992872 0.119189 0
    outer loop
      vertex 4.20525 3.61024 10
      vertex 4.23199 3.83299 11
      vertex 4.23199 3.83299 10
    endloop
  endfacet
  facet normal -0.992872 0.119189 0
    outer loop
      vertex 4.23199 3.83299 11
      vertex 4.20525 3.61024 10
      vertex 4.20525 3.61024 11
    endloop
  endfacet
  facet normal -0.926937 0.375217 0
    outer loop
      vertex 4.125 3.41199 10
      vertex 4.20525 3.61024 11
      vertex 4.20525 3.61024 10
    endloop
  endfacet
  facet normal -0.926937 0.375217 0
    outer loop
      vertex 4.20525 3.61024 11
      vertex 4.125 3.41199 10
      vertex 4.125 3.41199 11
    endloop
  endfacet
  facet normal -0.828496 0.559995 0
    outer loop
      vertex 4.00249 3.23074 10
      vertex 4.125 3.41199 11
      vertex 4.125 3.41199 10
    endloop
  endfacet
  facet normal -0.828496 0.559995 0
    outer loop
      vertex 4.125 3.41199 11
      vertex 4.00249 3.23074 10
      vertex 4.00249 3.23074 11
    endloop
  endfacet
  facet normal -0.745136 0.666913 0
    outer loop
      vertex 3.84698 3.05699 10
      vertex 4.00249 3.23074 11
      vertex 4.00249 3.23074 10
    endloop
  endfacet
  facet normal -0.745136 0.666913 0
    outer loop
      vertex 4.00249 3.23074 11
      vertex 3.84698 3.05699 10
      vertex 3.84698 3.05699 11
    endloop
  endfacet
  facet normal -0.680009 0.733204 0
    outer loop
      vertex 3.84698 3.05699 10
      vertex 3.66449 2.88774 11
      vertex 3.84698 3.05699 11
    endloop
  endfacet
  facet normal -0.680009 0.733204 0
    outer loop
      vertex 3.66449 2.88774 11
      vertex 3.84698 3.05699 10
      vertex 3.66449 2.88774 10
    endloop
  endfacet
  facet normal -0.640574 0.767896 0
    outer loop
      vertex 3.66449 2.88774 10
      vertex 3.461 2.71799 11
      vertex 3.66449 2.88774 11
    endloop
  endfacet
  facet normal -0.640574 0.767896 0
    outer loop
      vertex 3.461 2.71799 11
      vertex 3.66449 2.88774 10
      vertex 3.461 2.71799 10
    endloop
  endfacet
  facet normal -0.633933 0.773388 0
    outer loop
      vertex 3.461 2.71799 10
      vertex 3.24599 2.54175 11
      vertex 3.461 2.71799 11
    endloop
  endfacet
  facet normal -0.633933 0.773388 0
    outer loop
      vertex 3.24599 2.54175 11
      vertex 3.461 2.71799 10
      vertex 3.24599 2.54175 10
    endloop
  endfacet
  facet normal -0.660218 0.751074 0
    outer loop
      vertex 3.24599 2.54175 10
      vertex 3.02899 2.351 11
      vertex 3.24599 2.54175 11
    endloop
  endfacet
  facet normal -0.660218 0.751074 0
    outer loop
      vertex 3.02899 2.351 11
      vertex 3.24599 2.54175 10
      vertex 3.02899 2.351 10
    endloop
  endfacet
  facet normal -0.701242 0.712923 0
    outer loop
      vertex 3.02899 2.351 10
      vertex 2.81599 2.14149 11
      vertex 3.02899 2.351 11
    endloop
  endfacet
  facet normal -0.701242 0.712923 0
    outer loop
      vertex 2.81599 2.14149 11
      vertex 3.02899 2.351 10
      vertex 2.81599 2.14149 10
    endloop
  endfacet
  facet normal -0.753265 0.657717 0
    outer loop
      vertex 2.61299 1.909 10
      vertex 2.81599 2.14149 11
      vertex 2.81599 2.14149 10
    endloop
  endfacet
  facet normal -0.753265 0.657717 0
    outer loop
      vertex 2.81599 2.14149 11
      vertex 2.61299 1.909 10
      vertex 2.61299 1.909 11
    endloop
  endfacet
  facet normal -0.821207 0.57063 0
    outer loop
      vertex 2.43024 1.646 10
      vertex 2.61299 1.909 11
      vertex 2.61299 1.909 10
    endloop
  endfacet
  facet normal -0.821207 0.57063 0
    outer loop
      vertex 2.61299 1.909 11
      vertex 2.43024 1.646 10
      vertex 2.43024 1.646 11
    endloop
  endfacet
  facet normal -0.89236 0.451324 0
    outer loop
      vertex 2.278 1.34499 10
      vertex 2.43024 1.646 11
      vertex 2.43024 1.646 10
    endloop
  endfacet
  facet normal -0.89236 0.451324 0
    outer loop
      vertex 2.43024 1.646 11
      vertex 2.278 1.34499 10
      vertex 2.278 1.34499 11
    endloop
  endfacet
  facet normal -1 0 0
    outer loop
      vertex 2.278 1 10
      vertex 2.278 1.34499 11
      vertex 2.278 1.34499 10
    endloop
  endfacet
  facet normal -1 -0 0
    outer loop
      vertex 2.278 1.34499 11
      vertex 2.278 1 10
      vertex 2.278 1 11
    endloop
  endfacet
  facet normal 0 -1 0
    outer loop
      vertex 2.278 1 10
      vertex 4.79399 1 11
      vertex 2.278 1 11
    endloop
  endfacet
  facet normal 0 -1 -0
    outer loop
      vertex 4.79399 1 11
      vertex 2.278 1 10
      vertex 4.79399 1 10
    endloop
  endfacet
  facet normal 1 -0 0
    outer loop
      vertex 4.79399 1 11
      vertex 4.79399 1.41599 10
      vertex 4.79399 1.41599 11
    endloop
  endfacet
  facet normal 1 0 0
    outer loop
      vertex 4.79399 1.41599 10
      vertex 4.79399 1 11
      vertex 4.79399 1 10
    endloop
  endfacet
  facet normal 0.676778 -0.736187 0
    outer loop
      vertex 7.12915 1.06325 10
      vertex 7.5444 1.44499 11
      vertex 7.12915 1.06325 11
    endloop
  endfacet
  facet normal 0.676778 -0.736187 0
    outer loop
      vertex 7.5444 1.44499 11
      vertex 7.12915 1.06325 10
      vertex 7.5444 1.44499 10
    endloop
  endfacet
  facet normal 0.927085 -0.37485 0
    outer loop
      vertex 7.5444 1.44499 11
      vertex 7.7964 2.06824 10
      vertex 7.7964 2.06824 11
    endloop
  endfacet
  facet normal 0.927085 -0.37485 0
    outer loop
      vertex 7.7964 2.06824 10
      vertex 7.5444 1.44499 11
      vertex 7.5444 1.44499 10
    endloop
  endfacet
  facet normal 0.995172 -0.0981432 0
    outer loop
      vertex 7.7964 2.06824 11
      vertex 7.8804 2.92 10
      vertex 7.8804 2.92 11
    endloop
  endfacet
  facet normal 0.995172 -0.0981432 0
    outer loop
      vertex 7.8804 2.92 10
      vertex 7.7964 2.06824 11
      vertex 7.7964 2.06824 10
    endloop
  endfacet
  facet normal 0.995718 0.0924379 0
    outer loop
      vertex 7.8804 2.92 11
      vertex 7.8004 3.78174 10
      vertex 7.8004 3.78174 11
    endloop
  endfacet
  facet normal 0.995718 0.0924379 0
    outer loop
      vertex 7.8004 3.78174 10
      vertex 7.8804 2.92 11
      vertex 7.8804 2.92 10
    endloop
  endfacet
  facet normal 0.932819 0.360344 0
    outer loop
      vertex 7.8004 3.78174 11
      vertex 7.56041 4.403 10
      vertex 7.56041 4.403 11
    endloop
  endfacet
  facet normal 0.932819 0.360344 0
    outer loop
      vertex 7.56041 4.403 10
      vertex 7.8004 3.78174 11
      vertex 7.8004 3.78174 10
    endloop
  endfacet
  facet normal 0.678102 0.734967 -0
    outer loop
      vertex 7.56041 4.403 10
      vertex 7.15315 4.77875 11
      vertex 7.56041 4.403 11
    endloop
  endfacet
  facet normal 0.678102 0.734967 0
    outer loop
      vertex 7.15315 4.77875 11
      vertex 7.56041 4.403 10
      vertex 7.15315 4.77875 10
    endloop
  endfacet
  facet normal 0.209774 0.97775 -0
    outer loop
      vertex 7.15315 4.77875 10
      vertex 6.56941 4.90399 11
      vertex 7.15315 4.77875 11
    endloop
  endfacet
  facet normal 0.209774 0.97775 0
    outer loop
      vertex 6.56941 4.90399 11
      vertex 7.15315 4.77875 10
      vertex 6.56941 4.90399 10
    endloop
  endfacet
  facet normal -0.203186 0.97914 0
    outer loop
      vertex 6.56941 4.90399 10
      vertex 5.97191 4.78 11
      vertex 6.56941 4.90399 11
    endloop
  endfacet
  facet normal -0.203186 0.97914 0
    outer loop
      vertex 5.97191 4.78 11
      vertex 6.56941 4.90399 10
      vertex 5.97191 4.78 10
    endloop
  endfacet
  facet normal -0.669711 0.742622 0
    outer loop
      vertex 5.97191 4.78 10
      vertex 5.5594 4.40799 11
      vertex 5.97191 4.78 11
    endloop
  endfacet
  facet normal -0.669711 0.742622 0
    outer loop
      vertex 5.5594 4.40799 11
      vertex 5.97191 4.78 10
      vertex 5.5594 4.40799 10
    endloop
  endfacet
  facet normal -0.932853 0.360257 0
    outer loop
      vertex 5.32016 3.7885 10
      vertex 5.5594 4.40799 11
      vertex 5.5594 4.40799 10
    endloop
  endfacet
  facet normal -0.932853 0.360257 0
    outer loop
      vertex 5.5594 4.40799 11
      vertex 5.32016 3.7885 10
      vertex 5.32016 3.7885 11
    endloop
  endfacet
  facet normal -0.99581 0.0914517 0
    outer loop
      vertex 5.2404 2.92 10
      vertex 5.32016 3.7885 11
      vertex 5.32016 3.7885 10
    endloop
  endfacet
  facet normal -0.99581 0.0914517 0
    outer loop
      vertex 5.32016 3.7885 11
      vertex 5.2404 2.92 10
      vertex 5.2404 2.92 11
    endloop
  endfacet
  facet normal -0.995404 -0.0957672 0
    outer loop
      vertex 5.32266 2.06499 10
      vertex 5.2404 2.92 11
      vertex 5.2404 2.92 10
    endloop
  endfacet
  facet normal -0.995404 -0.0957672 0
    outer loop
      vertex 5.2404 2.92 11
      vertex 5.32266 2.06499 10
      vertex 5.32266 2.06499 11
    endloop
  endfacet
  facet normal -0.929732 -0.368237 0
    outer loop
      vertex 5.56941 1.44199 10
      vertex 5.32266 2.06499 11
      vertex 5.32266 2.06499 10
    endloop
  endfacet
  facet normal -0.929732 -0.368237 0
    outer loop
      vertex 5.32266 2.06499 11
      vertex 5.56941 1.44199 10
      vertex 5.56941 1.44199 11
    endloop
  endfacet
  facet normal -0.678836 -0.73429 0
    outer loop
      vertex 5.56941 1.44199 10
      vertex 5.9799 1.0625 11
      vertex 5.56941 1.44199 11
    endloop
  endfacet
  facet normal -0.678836 -0.73429 -0
    outer loop
      vertex 5.9799 1.0625 11
      vertex 5.56941 1.44199 10
      vertex 5.9799 1.0625 10
    endloop
  endfacet
  facet normal -0.215386 -0.976529 0
    outer loop
      vertex 5.9799 1.0625 10
      vertex 6.55341 0.936005 11
      vertex 5.9799 1.0625 11
    endloop
  endfacet
  facet normal -0.215386 -0.976529 -0
    outer loop
      vertex 6.55341 0.936005 11
      vertex 5.9799 1.0625 10
      vertex 6.55341 0.936005 10
    endloop
  endfacet
  facet normal 0.215803 -0.976437 0
    outer loop
      vertex 6.55341 0.936005 10
      vertex 7.12915 1.06325 11
      vertex 6.55341 0.936005 11
    endloop
  endfacet
  facet normal 0.215803 -0.976437 0
    outer loop
      vertex 7.12915 1.06325 11
      vertex 6.55341 0.936005 10
      vertex 7.12915 1.06325 10
    endloop
  endfacet
  facet normal 0.744827 0.667258 0
    outer loop
      vertex 6.18741 1.43124 11
      vertex 5.93141 1.717 10
      vertex 5.93141 1.717 11
    endloop
  endfacet
  facet normal 0.744827 0.667258 0
    outer loop
      vertex 5.93141 1.717 10
      vertex 6.18741 1.43124 11
      vertex 6.18741 1.43124 10
    endloop
  endfacet
  facet normal 0.957623 0.288024 0
    outer loop
      vertex 5.93141 1.717 11
      vertex 5.78366 2.20824 10
      vertex 5.78366 2.20824 11
    endloop
  endfacet
  facet normal 0.957623 0.288024 0
    outer loop
      vertex 5.78366 2.20824 10
      vertex 5.93141 1.717 11
      vertex 5.93141 1.717 10
    endloop
  endfacet
  facet normal 0.997615 0.0690296 0
    outer loop
      vertex 5.78366 2.20824 11
      vertex 5.73441 2.92 10
      vertex 5.73441 2.92 11
    endloop
  endfacet
  facet normal 0.997615 0.0690296 0
    outer loop
      vertex 5.73441 2.92 10
      vertex 5.78366 2.20824 11
      vertex 5.78366 2.20824 10
    endloop
  endfacet
  facet normal 0.997787 -0.0664972 0
    outer loop
      vertex 5.73441 2.92 11
      vertex 5.78291 3.64774 10
      vertex 5.78291 3.64774 11
    endloop
  endfacet
  facet normal 0.997787 -0.0664972 0
    outer loop
      vertex 5.78291 3.64774 10
      vertex 5.73441 2.92 11
      vertex 5.73441 2.92 10
    endloop
  endfacet
  facet normal 0.958511 -0.285055 0
    outer loop
      vertex 5.78291 3.64774 11
      vertex 5.92841 4.13699 10
      vertex 5.92841 4.13699 11
    endloop
  endfacet
  facet normal 0.958511 -0.285055 0
    outer loop
      vertex 5.92841 4.13699 10
      vertex 5.78291 3.64774 11
      vertex 5.78291 3.64774 10
    endloop
  endfacet
  facet normal 0.732699 -0.680552 0
    outer loop
      vertex 5.92841 4.13699 11
      vertex 6.18616 4.41449 10
      vertex 6.18616 4.41449 11
    endloop
  endfacet
  facet normal 0.732699 -0.680552 0
    outer loop
      vertex 6.18616 4.41449 10
      vertex 5.92841 4.13699 11
      vertex 5.92841 4.13699 10
    endloop
  endfacet
  facet normal 0.23462 -0.972087 0
    outer loop
      vertex 6.18616 4.41449 10
      vertex 6.56941 4.50699 11
      vertex 6.18616 4.41449 11
    endloop
  endfacet
  facet normal 0.23462 -0.972087 0
    outer loop
      vertex 6.56941 4.50699 11
      vertex 6.18616 4.41449 10
      vertex 6.56941 4.50699 10
    endloop
  endfacet
  facet normal -0.244069 -0.969758 0
    outer loop
      vertex 6.56941 4.50699 10
      vertex 6.9429 4.41299 11
      vertex 6.56941 4.50699 11
    endloop
  endfacet
  facet normal -0.244069 -0.969758 -0
    outer loop
      vertex 6.9429 4.41299 11
      vertex 6.56941 4.50699 10
      vertex 6.9429 4.41299 10
    endloop
  endfacet
  facet normal -0.747604 -0.664145 0
    outer loop
      vertex 7.19341 4.131 10
      vertex 6.9429 4.41299 11
      vertex 6.9429 4.41299 10
    endloop
  endfacet
  facet normal -0.747604 -0.664145 0
    outer loop
      vertex 6.9429 4.41299 11
      vertex 7.19341 4.131 10
      vertex 7.19341 4.131 11
    endloop
  endfacet
  facet normal -0.960257 -0.279116 0
    outer loop
      vertex 7.33591 3.64075 10
      vertex 7.19341 4.131 11
      vertex 7.19341 4.131 10
    endloop
  endfacet
  facet normal -0.960257 -0.279116 0
    outer loop
      vertex 7.19341 4.131 11
      vertex 7.33591 3.64075 10
      vertex 7.33591 3.64075 11
    endloop
  endfacet
  facet normal -0.997835 -0.0657609 0
    outer loop
      vertex 7.38341 2.92 10
      vertex 7.33591 3.64075 11
      vertex 7.33591 3.64075 10
    endloop
  endfacet
  facet normal -0.997835 -0.0657609 0
    outer loop
      vertex 7.33591 3.64075 11
      vertex 7.38341 2.92 10
      vertex 7.38341 2.92 11
    endloop
  endfacet
  facet normal -0.997496 0.0707167 0
    outer loop
      vertex 7.33366 2.21825 10
      vertex 7.38341 2.92 11
      vertex 7.38341 2.92 10
    endloop
  endfacet
  facet normal -0.997496 0.0707167 0
    outer loop
      vertex 7.38341 2.92 11
      vertex 7.33366 2.21825 10
      vertex 7.33366 2.21825 11
    endloop
  endfacet
  facet normal -0.957139 0.289629 0
    outer loop
      vertex 7.1844 1.72499 10
      vertex 7.33366 2.21825 11
      vertex 7.33366 2.21825 10
    endloop
  endfacet
  facet normal -0.957139 0.289629 0
    outer loop
      vertex 7.33366 2.21825 11
      vertex 7.1844 1.72499 10
      vertex 7.1844 1.72499 11
    endloop
  endfacet
  facet normal -0.752617 0.658459 0
    outer loop
      vertex 6.92915 1.43324 10
      vertex 7.1844 1.72499 11
      vertex 7.1844 1.72499 10
    endloop
  endfacet
  facet normal -0.752617 0.658459 0
    outer loop
      vertex 7.1844 1.72499 11
      vertex 6.92915 1.43324 10
      vertex 6.92915 1.43324 11
    endloop
  endfacet
  facet normal -0.25434 0.967115 0
    outer loop
      vertex 6.92915 1.43324 10
      vertex 6.5594 1.336 11
      vertex 6.92915 1.43324 11
    endloop
  endfacet
  facet normal -0.25434 0.967115 0
    outer loop
      vertex 6.5594 1.336 11
      vertex 6.92915 1.43324 10
      vertex 6.5594 1.336 10
    endloop
  endfacet
  facet normal 0.248028 0.968753 -0
    outer loop
      vertex 6.5594 1.336 10
      vertex 6.18741 1.43124 11
      vertex 6.5594 1.336 11
    endloop
  endfacet
  facet normal 0.248028 0.968753 0
    outer loop
      vertex 6.18741 1.43124 11
      vertex 6.5594 1.336 10
      vertex 6.18741 1.43124 10
    endloop
  endfacet
  facet normal -0.939693 0 0.34202
    outer loop
      vertex 3.18015 5 0
      vertex 5 27 5
      vertex 3.18015 27 0
    endloop
  endfacet
  facet normal -0.939693 0 0.34202
    outer loop
      vertex 5 27 5
      vertex 3.18015 5 0
      vertex 5 5 5
    endloop
  endfacet
endsolid OpenSCAD_Model
