solid OpenSCAD_Model
  facet normal -1 0 0
    outer loop
      vertex 0 25 0
      vertex 0 20 4
      vertex 0 25 4
    endloop
  endfacet
  facet normal -1 0 0
    outer loop
      vertex 0 20 4
      vertex 0 16.6434 11.5543
      vertex 0 20 21
    endloop
  endfacet
  facet normal -1 0 0
    outer loop
      vertex 0 20 4
      vertex 0 15.8228 9.85017
      vertex 0 16.6434 11.5543
    endloop
  endfacet
  facet normal -1 0 0
    outer loop
      vertex 0 20 4
      vertex 0 14.344 8.67088
      vertex 0 15.8228 9.85017
    endloop
  endfacet
  facet normal -1 0 0
    outer loop
      vertex 0 20 4
      vertex 0 12.5 8.25
      vertex 0 14.344 8.67088
    endloop
  endfacet
  facet normal -1 0 0
    outer loop
      vertex 0 5 4
      vertex 0 20 4
      vertex 0 25 0
    endloop
  endfacet
  facet normal -1 0 0
    outer loop
      vertex 0 20 4
      vertex 0 5 4
      vertex 0 12.5 8.25
    endloop
  endfacet
  facet normal -1 -0 0
    outer loop
      vertex 0 8.35656 11.5543
      vertex 0 5 4
      vertex 0 8.35656 13.4457
    endloop
  endfacet
  facet normal -1 -0 0
    outer loop
      vertex 0 9.17722 9.85017
      vertex 0 5 4
      vertex 0 8.35656 11.5543
    endloop
  endfacet
  facet normal -1 -0 0
    outer loop
      vertex 0 10.656 8.67088
      vertex 0 5 4
      vertex 0 9.17722 9.85017
    endloop
  endfacet
  facet normal -1 -0 0
    outer loop
      vertex 0 12.5 8.25
      vertex 0 5 4
      vertex 0 10.656 8.67088
    endloop
  endfacet
  facet normal -1 0 0
    outer loop
      vertex 0 0 0
      vertex 0 5 4
      vertex 0 25 0
    endloop
  endfacet
  facet normal -1 -0 0
    outer loop
      vertex 0 5 4
      vertex 0 0 0
      vertex 0 0 4
    endloop
  endfacet
  facet normal -1 0 0
    outer loop
      vertex 0 20 21
      vertex 0 25 25
      vertex 0 25 21
    endloop
  endfacet
  facet normal -1 0 0
    outer loop
      vertex 0 16.6434 13.4457
      vertex 0 20 21
      vertex 0 16.6434 11.5543
    endloop
  endfacet
  facet normal -1 0 0
    outer loop
      vertex 0 15.8228 15.1498
      vertex 0 20 21
      vertex 0 16.6434 13.4457
    endloop
  endfacet
  facet normal -1 0 0
    outer loop
      vertex 0 14.344 16.3291
      vertex 0 20 21
      vertex 0 15.8228 15.1498
    endloop
  endfacet
  facet normal -1 0 0
    outer loop
      vertex 0 12.5 16.75
      vertex 0 20 21
      vertex 0 14.344 16.3291
    endloop
  endfacet
  facet normal -1 0 0
    outer loop
      vertex 0 5 21
      vertex 0 20 21
      vertex 0 12.5 16.75
    endloop
  endfacet
  facet normal -1 0 0
    outer loop
      vertex 0 5 21
      vertex 0 12.5 16.75
      vertex 0 10.656 16.3291
    endloop
  endfacet
  facet normal -1 0 0
    outer loop
      vertex 0 5 21
      vertex 0 8.35656 13.4457
      vertex 0 5 4
    endloop
  endfacet
  facet normal -1 0 0
    outer loop
      vertex 0 5 21
      vertex 0 9.17722 15.1498
      vertex 0 8.35656 13.4457
    endloop
  endfacet
  facet normal -1 0 0
    outer loop
      vertex 0 5 21
      vertex 0 10.656 16.3291
      vertex 0 9.17722 15.1498
    endloop
  endfacet
  facet normal -1 0 0
    outer loop
      vertex 0 20 21
      vertex 0 5 21
      vertex 0 25 25
    endloop
  endfacet
  facet normal -1 0 0
    outer loop
      vertex 0 0 25
      vertex 0 5 21
      vertex 0 0 21
    endloop
  endfacet
  facet normal -1 0 0
    outer loop
      vertex 0 5 21
      vertex 0 0 25
      vertex 0 25 25
    endloop
  endfacet
  facet normal -0 0 1
    outer loop
      vertex 0 25 25
      vertex 83.3333 0 25
      vertex 83.3333 25 25
    endloop
  endfacet
  facet normal 0 0 1
    outer loop
      vertex 83.3333 0 25
      vertex 0 25 25
      vertex 0 0 25
    endloop
  endfacet
  facet normal 1 0 0
    outer loop
      vertex 83.3333 25 25
      vertex 83.3333 20 21
      vertex 83.3333 25 21
    endloop
  endfacet
  facet normal 1 0 0
    outer loop
      vertex 83.3333 20 21
      vertex 83.3333 16.6434 13.4457
      vertex 83.3333 20 4
    endloop
  endfacet
  facet normal 1 0 0
    outer loop
      vertex 83.3333 20 21
      vertex 83.3333 15.8228 15.1498
      vertex 83.3333 16.6434 13.4457
    endloop
  endfacet
  facet normal 1 0 0
    outer loop
      vertex 83.3333 20 21
      vertex 83.3333 14.344 16.3291
      vertex 83.3333 15.8228 15.1498
    endloop
  endfacet
  facet normal 1 0 0
    outer loop
      vertex 83.3333 20 21
      vertex 83.3333 12.5 16.75
      vertex 83.3333 14.344 16.3291
    endloop
  endfacet
  facet normal 1 0 0
    outer loop
      vertex 83.3333 5 21
      vertex 83.3333 20 21
      vertex 83.3333 25 25
    endloop
  endfacet
  facet normal 1 0 0
    outer loop
      vertex 83.3333 20 21
      vertex 83.3333 5 21
      vertex 83.3333 12.5 16.75
    endloop
  endfacet
  facet normal 1 0 0
    outer loop
      vertex 83.3333 8.35656 13.4457
      vertex 83.3333 5 21
      vertex 83.3333 8.35656 11.5543
    endloop
  endfacet
  facet normal 1 0 0
    outer loop
      vertex 83.3333 9.17722 15.1498
      vertex 83.3333 5 21
      vertex 83.3333 8.35656 13.4457
    endloop
  endfacet
  facet normal 1 0 0
    outer loop
      vertex 83.3333 10.656 16.3291
      vertex 83.3333 5 21
      vertex 83.3333 9.17722 15.1498
    endloop
  endfacet
  facet normal 1 0 0
    outer loop
      vertex 83.3333 12.5 16.75
      vertex 83.3333 5 21
      vertex 83.3333 10.656 16.3291
    endloop
  endfacet
  facet normal 1 -0 0
    outer loop
      vertex 83.3333 0 25
      vertex 83.3333 5 21
      vertex 83.3333 25 25
    endloop
  endfacet
  facet normal 1 0 0
    outer loop
      vertex 83.3333 5 21
      vertex 83.3333 0 25
      vertex 83.3333 0 21
    endloop
  endfacet
  facet normal 1 -0 0
    outer loop
      vertex 83.3333 20 4
      vertex 83.3333 25 0
      vertex 83.3333 25 4
    endloop
  endfacet
  facet normal 1 -0 0
    outer loop
      vertex 83.3333 16.6434 11.5543
      vertex 83.3333 20 4
      vertex 83.3333 16.6434 13.4457
    endloop
  endfacet
  facet normal 1 -0 0
    outer loop
      vertex 83.3333 15.8228 9.85017
      vertex 83.3333 20 4
      vertex 83.3333 16.6434 11.5543
    endloop
  endfacet
  facet normal 1 -0 0
    outer loop
      vertex 83.3333 14.344 8.67088
      vertex 83.3333 20 4
      vertex 83.3333 15.8228 9.85017
    endloop
  endfacet
  facet normal 1 -0 0
    outer loop
      vertex 83.3333 12.5 8.25
      vertex 83.3333 20 4
      vertex 83.3333 14.344 8.67088
    endloop
  endfacet
  facet normal 1 0 0
    outer loop
      vertex 83.3333 5 4
      vertex 83.3333 20 4
      vertex 83.3333 12.5 8.25
    endloop
  endfacet
  facet normal 1 0 0
    outer loop
      vertex 83.3333 5 4
      vertex 83.3333 12.5 8.25
      vertex 83.3333 10.656 8.67088
    endloop
  endfacet
  facet normal 1 0 0
    outer loop
      vertex 83.3333 5 4
      vertex 83.3333 8.35656 11.5543
      vertex 83.3333 5 21
    endloop
  endfacet
  facet normal 1 0 0
    outer loop
      vertex 83.3333 5 4
      vertex 83.3333 9.17722 9.85017
      vertex 83.3333 8.35656 11.5543
    endloop
  endfacet
  facet normal 1 0 0
    outer loop
      vertex 83.3333 5 4
      vertex 83.3333 10.656 8.67088
      vertex 83.3333 9.17722 9.85017
    endloop
  endfacet
  facet normal 1 0 0
    outer loop
      vertex 83.3333 20 4
      vertex 83.3333 5 4
      vertex 83.3333 25 0
    endloop
  endfacet
  facet normal 1 0 0
    outer loop
      vertex 83.3333 0 0
      vertex 83.3333 5 4
      vertex 83.3333 0 4
    endloop
  endfacet
  facet normal 1 0 0
    outer loop
      vertex 83.3333 5 4
      vertex 83.3333 0 0
      vertex 83.3333 25 0
    endloop
  endfacet
  facet normal 0 0 -1
    outer loop
      vertex 0 0 0
      vertex 83.3333 25 0
      vertex 83.3333 0 0
    endloop
  endfacet
  facet normal -0 0 -1
    outer loop
      vertex 83.3333 25 0
      vertex 0 0 0
      vertex 0 25 0
    endloop
  endfacet
  facet normal 0 -1 0
    outer loop
      vertex 0 0 21
      vertex 83.3333 0 25
      vertex 0 0 25
    endloop
  endfacet
  facet normal 0 -1 -0
    outer loop
      vertex 83.3333 0 25
      vertex 0 0 21
      vertex 83.3333 0 21
    endloop
  endfacet
  facet normal 0 -1 0
    outer loop
      vertex 0 0 0
      vertex 83.3333 0 4
      vertex 0 0 4
    endloop
  endfacet
  facet normal 0 -1 -0
    outer loop
      vertex 83.3333 0 4
      vertex 0 0 0
      vertex 83.3333 0 0
    endloop
  endfacet
  facet normal 0 1 -0
    outer loop
      vertex 83.3333 25 21
      vertex 0 25 25
      vertex 83.3333 25 25
    endloop
  endfacet
  facet normal 0 1 0
    outer loop
      vertex 0 25 25
      vertex 83.3333 25 21
      vertex 0 25 21
    endloop
  endfacet
  facet normal 0 1 -0
    outer loop
      vertex 83.3333 25 0
      vertex 0 25 4
      vertex 83.3333 25 4
    endloop
  endfacet
  facet normal 0 1 0
    outer loop
      vertex 0 25 4
      vertex 83.3333 25 0
      vertex 0 25 0
    endloop
  endfacet
  facet normal 0 -0.22252 0.974928
    outer loop
      vertex 0 14.344 8.67088
      vertex 83.3333 12.5 8.25
      vertex 83.3333 14.344 8.67088
    endloop
  endfacet
  facet normal 0 -0.22252 0.974928
    outer loop
      vertex 83.3333 12.5 8.25
      vertex 0 14.344 8.67088
      vertex 0 12.5 8.25
    endloop
  endfacet
  facet normal 0 -0.22253 -0.974926
    outer loop
      vertex 0 12.5 16.75
      vertex 83.3333 14.344 16.3291
      vertex 83.3333 12.5 16.75
    endloop
  endfacet
  facet normal -0 -0.22253 -0.974926
    outer loop
      vertex 83.3333 14.344 16.3291
      vertex 0 12.5 16.75
      vertex 0 14.344 16.3291
    endloop
  endfacet
  facet normal 0 -0.623485 0.781835
    outer loop
      vertex 0 15.8228 9.85017
      vertex 83.3333 14.344 8.67088
      vertex 83.3333 15.8228 9.85017
    endloop
  endfacet
  facet normal 0 -0.623485 0.781835
    outer loop
      vertex 83.3333 14.344 8.67088
      vertex 0 15.8228 9.85017
      vertex 0 14.344 8.67088
    endloop
  endfacet
  facet normal 0 -0.900979 -0.433862
    outer loop
      vertex 0 16.6434 13.4457
      vertex 83.3333 15.8228 15.1498
      vertex 0 15.8228 15.1498
    endloop
  endfacet
  facet normal 0 -0.900979 -0.433862
    outer loop
      vertex 83.3333 15.8228 15.1498
      vertex 0 16.6434 13.4457
      vertex 83.3333 16.6434 13.4457
    endloop
  endfacet
  facet normal 0 1 -0
    outer loop
      vertex 83.3333 8.35656 11.5543
      vertex 0 8.35656 13.4457
      vertex 83.3333 8.35656 13.4457
    endloop
  endfacet
  facet normal 0 1 0
    outer loop
      vertex 0 8.35656 13.4457
      vertex 83.3333 8.35656 11.5543
      vertex 0 8.35656 11.5543
    endloop
  endfacet
  facet normal 0 0.90097 0.433881
    outer loop
      vertex 83.3333 9.17722 9.85017
      vertex 0 8.35656 11.5543
      vertex 83.3333 8.35656 11.5543
    endloop
  endfacet
  facet normal 0 0.90097 0.433881
    outer loop
      vertex 0 8.35656 11.5543
      vertex 83.3333 9.17722 9.85017
      vertex 0 9.17722 9.85017
    endloop
  endfacet
  facet normal 0 -0.900982 0.433856
    outer loop
      vertex 0 15.8228 9.85017
      vertex 83.3333 16.6434 11.5543
      vertex 0 16.6434 11.5543
    endloop
  endfacet
  facet normal 0 -0.900982 0.433856
    outer loop
      vertex 83.3333 16.6434 11.5543
      vertex 0 15.8228 9.85017
      vertex 83.3333 15.8228 9.85017
    endloop
  endfacet
  facet normal 0 -0.623489 -0.781832
    outer loop
      vertex 0 14.344 16.3291
      vertex 83.3333 15.8228 15.1498
      vertex 83.3333 14.344 16.3291
    endloop
  endfacet
  facet normal -0 -0.623489 -0.781832
    outer loop
      vertex 83.3333 15.8228 15.1498
      vertex 0 14.344 16.3291
      vertex 0 15.8228 15.1498
    endloop
  endfacet
  facet normal -0 0.22252 0.974928
    outer loop
      vertex 0 12.5 8.25
      vertex 83.3333 10.656 8.67088
      vertex 83.3333 12.5 8.25
    endloop
  endfacet
  facet normal 0 0.22252 0.974928
    outer loop
      vertex 83.3333 10.656 8.67088
      vertex 0 12.5 8.25
      vertex 0 10.656 8.67088
    endloop
  endfacet
  facet normal 0 -1 0
    outer loop
      vertex 0 16.6434 11.5543
      vertex 83.3333 16.6434 13.4457
      vertex 0 16.6434 13.4457
    endloop
  endfacet
  facet normal 0 -1 -0
    outer loop
      vertex 83.3333 16.6434 13.4457
      vertex 0 16.6434 11.5543
      vertex 83.3333 16.6434 11.5543
    endloop
  endfacet
  facet normal -0 0.623491 0.781831
    outer loop
      vertex 0 10.656 8.67088
      vertex 83.3333 9.17722 9.85017
      vertex 83.3333 10.656 8.67088
    endloop
  endfacet
  facet normal 0 0.623491 0.781831
    outer loop
      vertex 83.3333 9.17722 9.85017
      vertex 0 10.656 8.67088
      vertex 0 9.17722 9.85017
    endloop
  endfacet
  facet normal 0 0.900967 -0.433887
    outer loop
      vertex 83.3333 8.35656 13.4457
      vertex 0 9.17722 15.1498
      vertex 83.3333 9.17722 15.1498
    endloop
  endfacet
  facet normal 0 0.900967 -0.433887
    outer loop
      vertex 0 9.17722 15.1498
      vertex 83.3333 8.35656 13.4457
      vertex 0 8.35656 13.4457
    endloop
  endfacet
  facet normal 0 0.623494 -0.781828
    outer loop
      vertex 0 9.17722 15.1498
      vertex 83.3333 10.656 16.3291
      vertex 83.3333 9.17722 15.1498
    endloop
  endfacet
  facet normal 0 0.623494 -0.781828
    outer loop
      vertex 83.3333 10.656 16.3291
      vertex 0 9.17722 15.1498
      vertex 0 10.656 16.3291
    endloop
  endfacet
  facet normal 0 0.22253 -0.974926
    outer loop
      vertex 0 10.656 16.3291
      vertex 83.3333 12.5 16.75
      vertex 83.3333 10.656 16.3291
    endloop
  endfacet
  facet normal 0 0.22253 -0.974926
    outer loop
      vertex 83.3333 12.5 16.75
      vertex 0 10.656 16.3291
      vertex 0 12.5 16.75
    endloop
  endfacet
  facet normal 0 0 -1
    outer loop
      vertex 0 0 21
      vertex 83.3333 5 21
      vertex 83.3333 0 21
    endloop
  endfacet
  facet normal -0 0 -1
    outer loop
      vertex 83.3333 5 21
      vertex 0 0 21
      vertex 0 5 21
    endloop
  endfacet
  facet normal -0 0 1
    outer loop
      vertex 0 5 4
      vertex 83.3333 0 4
      vertex 83.3333 5 4
    endloop
  endfacet
  facet normal 0 0 1
    outer loop
      vertex 83.3333 0 4
      vertex 0 5 4
      vertex 0 0 4
    endloop
  endfacet
  facet normal 0 -1 0
    outer loop
      vertex 0 5 4
      vertex 83.3333 5 21
      vertex 0 5 21
    endloop
  endfacet
  facet normal 0 -1 -0
    outer loop
      vertex 83.3333 5 21
      vertex 0 5 4
      vertex 83.3333 5 4
    endloop
  endfacet
  facet normal 0 0 -1
    outer loop
      vertex 0 20 21
      vertex 83.3333 25 21
      vertex 83.3333 20 21
    endloop
  endfacet
  facet normal -0 0 -1
    outer loop
      vertex 83.3333 25 21
      vertex 0 20 21
      vertex 0 25 21
    endloop
  endfacet
  facet normal -0 0 1
    outer loop
      vertex 0 25 4
      vertex 83.3333 20 4
      vertex 83.3333 25 4
    endloop
  endfacet
  facet normal 0 0 1
    outer loop
      vertex 83.3333 20 4
      vertex 0 25 4
      vertex 0 20 4
    endloop
  endfacet
  facet normal 0 1 -0
    outer loop
      vertex 83.3333 20 4
      vertex 0 20 21
      vertex 83.3333 20 21
    endloop
  endfacet
  facet normal 0 1 0
    outer loop
      vertex 0 20 21
      vertex 83.3333 20 4
      vertex 0 20 4
    endloop
  endfacet
endsolid OpenSCAD_Model
